<svg xmlns="http://www.w3.org/2000/svg" width="641.751" height="860.311" viewBox="0 0 641.751 860.311">
  <g id="Group_17" data-name="Group 17" transform="translate(-9.889 -206.92)">
    <path id="Path_6" data-name="Path 6" d="M2326.122-348.918c90.633-105.908,177.432-494.769,214.827-680.636,12.206-60.669,19.137-99.7,19.137-99.7" transform="matrix(0.899, 0.438, -0.438, 0.899, -2151.737, 251.214)" fill="none" stroke="#fff" stroke-linecap="round" stroke-width="11" stroke-dasharray="12 2"/>
    <path id="Path_5" data-name="Path 5" d="M2326.122-348.918c90.633-105.908,177.432-494.769,214.827-680.636,12.206-60.669,19.137-99.7,19.137-99.7" transform="matrix(0.899, 0.438, -0.438, 0.899, -2174.737, 220.214)" fill="none" stroke="#fff" stroke-linecap="round" stroke-width="14" stroke-dasharray="12 2"/>
    <path id="Path_4" data-name="Path 4" d="M2326.122-348.918c90.633-105.908,177.432-494.769,214.827-680.636,12.206-60.669,19.137-99.7,19.137-99.7" transform="matrix(0.899, 0.438, -0.438, 0.899, -2221.737, 214.214)" fill="none" stroke="#fff" stroke-linecap="round" stroke-width="18" stroke-dasharray="12 2"/>
  </g>
</svg>
